<svg width="80" height="80" viewBox="0 0 80 80" fill="none" xmlns="http://www.w3.org/2000/svg">
<rect width="80" height="80" fill="#22BA79"/>
<path fill-rule="evenodd" clip-rule="evenodd" d="M17.8034 25.2404C18.7835 23.7512 19.9275 22.3384 21.2376 21.0307C26.4556 15.8135 33.3087 13.2053 40.1627 13.2053C47.0159 13.2053 53.8691 15.8135 59.0871 21.0307C69.5222 31.4666 69.5222 48.4459 59.0871 58.8802C48.652 69.3194 31.6735 69.3194 21.2376 58.8802C13.1513 50.7964 11.3299 38.7878 15.7716 28.9347C16.3431 27.6639 17.0215 26.4261 17.8034 25.2404ZM19.2338 37.6349C25.0819 41.2128 31.3298 43.9711 37.6692 46.5439C37.8747 46.6282 38.0522 46.674 38.2031 46.674C38.5338 46.674 38.7401 46.454 38.8573 45.9435C39.1118 44.8469 39.4032 43.7503 39.7693 42.6883C40.1321 41.6495 40.6387 41.5475 41.4109 42.3431C42.8013 43.7737 44.1798 45.2196 45.5582 46.6653C46.2379 47.3782 46.9175 48.0911 47.5986 48.8021C47.8121 49.027 48.0275 49.25 48.2428 49.4728C48.7522 50.0001 49.2612 50.5269 49.7436 51.0788C50.4452 51.8815 50.2774 52.4306 49.229 52.6955C47.2366 53.2034 45.2406 53.6945 43.2438 54.1857C42.2551 54.4289 41.2662 54.6722 40.2774 54.9176C39.9284 55.0039 39.5804 55.096 39.2325 55.1881C38.8232 55.2964 38.414 55.4047 38.0032 55.5036C36.9066 55.7661 36.3655 55.205 36.6634 54.1309C36.7785 53.7264 36.8907 53.321 37.0029 52.9154C37.1762 52.2889 37.3497 51.662 37.5344 51.0378C37.7078 50.4486 37.487 50.2174 36.909 50.0841C36.2198 49.9258 35.5303 49.769 34.8408 49.6123C32.1107 48.9915 29.3815 48.3709 26.6794 47.6582C25.2119 47.2704 23.7525 46.853 22.2971 46.4235C20.6017 45.9218 19.1109 47.6461 19.8447 49.2533C20.9196 51.611 22.4256 53.8178 24.3626 55.7549C31.4294 62.8208 42.0885 64.1558 50.5119 59.7598C52.4738 58.7339 54.317 57.3989 55.9618 55.7549C57.6332 54.0827 58.9842 52.209 60.0126 50.2142C60.7447 48.7965 61.3146 47.3154 61.7233 45.8006C61.8445 45.3502 61.9504 44.8967 62.0419 44.4423C62.2145 43.5978 61.8397 42.7324 61.1035 42.2853C61.0995 42.2821 61.0955 42.2796 61.0907 42.2772C55.2425 38.6993 48.9938 35.9402 42.6544 33.3682C41.9969 33.1 41.6373 33.2237 41.4671 33.9678C41.2118 35.0652 40.922 36.1618 40.5544 37.2222C40.1923 38.261 39.6866 38.3614 38.9127 37.5674C37.4411 36.0531 35.9851 34.5251 34.5286 32.9966C33.9281 32.3664 33.3276 31.7362 32.7258 31.1068C32.5244 30.8954 32.3212 30.6855 32.1179 30.4756C31.5962 29.9367 31.0742 29.3975 30.5808 28.8325C29.8792 28.0314 30.0446 27.4807 31.0946 27.2166C33.1956 26.6794 35.3018 26.1619 37.4098 25.6439C38.2883 25.428 39.1672 25.212 40.0462 24.9945C40.3953 24.9083 40.7426 24.8161 41.0896 24.7239C41.4983 24.6154 41.9066 24.507 42.3172 24.4085C43.4178 24.146 43.9565 24.7063 43.6579 25.7788C43.5568 26.1381 43.4577 26.4983 43.3586 26.8585C43.1737 27.5307 42.9887 28.2033 42.7901 28.8719C42.6159 29.4627 42.8366 29.6955 43.4146 29.8272C44.0944 29.9833 44.7745 30.138 45.4546 30.2927C48.1944 30.9159 50.9336 31.5389 53.645 32.2547C55.1125 32.6409 56.5711 33.0583 58.0273 33.4878C59.7212 33.9903 61.2119 32.2668 60.4798 30.6588C59.4041 28.3011 57.8989 26.0935 55.9618 24.1572C47.2478 15.4456 33.0734 15.4456 24.3626 24.1572C23.7991 24.7208 23.2741 25.306 22.7852 25.9121C21.2343 27.8243 20.0494 29.9355 19.2281 32.152C18.8268 33.2349 18.5129 34.3403 18.2849 35.4602C18.1115 36.3087 18.4816 37.1789 19.2217 37.6276L19.2338 37.6349Z" fill="white"/>
</svg>
